<svg xmlns="http://www.w3.org/2000/svg" viewBox="0 0 404.357 404.357"><path fill="#fff" d="M4.878 27.064C3.156 13.011 10.272 5.345 16.545 1.389a8.997 8.997 0 0 1 12.413 2.812 8.998 8.998 0 0 1-2.812 12.413c-5.813 3.666-4.154 10.492 3.43 27.881 3.535 8.104 7.19 16.485 8.186 24.563 1.727 14.021-5.363 21.665-11.615 25.608a8.994 8.994 0 0 1-12.414-2.811 8.999 8.999 0 0 1 2.811-12.413c5.75-3.627 4.091-10.424-3.467-27.75-3.542-8.124-7.206-16.523-8.199-24.628zM54.553 63.44c7.558 17.326 9.218 24.123 3.467 27.75a9 9 0 1 0 9.602 15.224c6.252-3.943 13.342-11.587 11.615-25.608-.995-8.078-4.65-16.459-8.186-24.563-7.585-17.389-9.244-24.215-3.43-27.882a9 9 0 0 0 2.812-12.413c-2.651-4.204-8.211-5.463-12.413-2.812-6.273 3.956-13.39 11.622-11.668 25.676.994 8.105 4.658 16.504 8.201 24.628zm248.446 139.612c16.507 22.54 16.235 53.984-.676 78.243-15.58 22.349-41.763 33.551-66.789 29.171l-7.644 10.964a9 9 0 0 1-14.766-.001l-7.643-10.963c-25.021 4.386-51.206-6.822-66.784-29.171-16.915-24.259-17.188-55.702-.679-78.243a9.004 9.004 0 0 1 4.783-3.335c26.857-7.691 56.266 3.438 73.179 27.698a73.015 73.015 0 0 1 4.528 7.391 73.284 73.284 0 0 1 4.527-7.39c16.913-24.261 46.32-35.39 73.179-27.699a8.99 8.99 0 0 1 4.785 3.335zM201.216 237.71c-11.867-17.022-31.803-25.384-50.429-21.441-10.137 16.116-9.191 37.711 2.677 54.732 9.692 13.903 24.768 22.026 40.116 22.391l-26.157-37.522c-2.842-4.077-1.841-9.688 2.236-12.529a9 9 0 0 1 12.53 2.236l26.157 37.522c4.971-14.529 2.564-31.484-7.13-45.389zm89.015-21.442c-18.624-3.933-38.561 4.42-50.428 21.441-9.692 13.903-12.099 30.859-7.131 45.388l26.159-37.522a8.992 8.992 0 0 1 7.391-3.854c1.777 0 3.571.524 5.139 1.618a9 9 0 0 1 2.236 12.53l-26.159 37.521c15.352-.362 30.425-8.484 40.119-22.391 11.866-17.02 12.811-38.614 2.674-54.731zm113.636 88.136c0 31.162-16.532 47.63-30.401 55.957-14.672 8.81-30.526 11.138-36.86 11.138H104.561c-6.333 0-22.188-2.328-36.861-11.138-13.732-8.245-30.076-24.475-30.396-55.045L.664 121.402a9 9 0 0 1 11.437-10.372l62.435 18.921a9 9 0 0 1 6.006 6.014l11.425 37.866a181.61 181.61 0 0 1 5.044-4.78v-68.125c0-44.345 34.352-80.422 76.577-80.422h93.987c42.225 0 76.578 36.077 76.578 80.422v68.228c36.678 33.536 59.714 81.752 59.714 135.25zM115.011 154.597a183.726 183.726 0 0 1 30.609-17.425c2.864-12.536 8.842-24.156 17.455-33.852A76.981 76.981 0 0 1 211.582 78v-7.046c0-4.971 4.029-9 9-9s9 4.029 9 9v7.044a76.869 76.869 0 0 1 41.099 18.032c12.5 10.744 21.206 25.204 24.856 41.124a183.254 183.254 0 0 1 30.615 17.499v-53.728c0-34.42-26.278-62.422-58.578-62.422h-93.987c-32.299 0-58.577 28.002-58.577 62.422v53.672zm105.572-59.128a58.959 58.959 0 0 0-44.05 19.804 58.92 58.92 0 0 0-9.13 13.747 183.025 183.025 0 0 1 53.181-7.899c18.499 0 36.37 2.756 53.218 7.877-9.509-20.12-29.873-33.529-53.219-33.529zm-142.72 93.932l-13.162-43.622-43.451-13.168 23.745 119.184a182.926 182.926 0 0 1 32.868-62.394zm308.004 115.003c0-91.138-74.146-165.283-165.284-165.283-47.198 0-92.257 20.256-123.624 55.573-.658.74-2.33 2.705-2.539 2.927-25.22 29.771-39.082 67.477-39.12 106.623.002.111.002.222 0 .332.119 46.817 48.769 48.923 49.261 48.923h232.045c.493 0 49.261-2.111 49.261-49.095zm-76.348 81.953H131.646c-4.971 0-9 4.029-9 9s4.029 9 9 9h177.873c4.971 0 9-4.029 9-9s-4.029-9-9-9z"/></svg>